<?xml version="1.0" encoding="UTF-8"?>
<svg xmlns="http://www.w3.org/2000/svg" xmlns:xlink="http://www.w3.org/1999/xlink" width="50pt" height="50pt" viewBox="0 0 50 50" version="1.1">
<g id="surface1">
<path style=" stroke:none;fill-rule:nonzero;fill:rgb(94.117647%,23.529412%,18.039216%);fill-opacity:1;" d="M 49.054688 22.773438 L 27.226562 0.945312 C 25.96875 -0.3125 23.929688 -0.3125 22.671875 0.945312 L 18.140625 5.476562 L 23.890625 11.226562 C 25.230469 10.757812 26.761719 11.078125 27.828125 12.140625 C 28.863281 13.179688 29.214844 14.714844 28.734375 16.101562 L 34.277344 21.640625 C 35.617188 21.179688 37.164062 21.476562 38.234375 22.550781 C 39.730469 24.046875 39.730469 26.476562 38.234375 27.972656 C 36.738281 29.46875 34.308594 29.46875 32.8125 27.96875 C 31.6875 26.84375 31.410156 25.1875 31.980469 23.804688 L 26.8125 18.632812 L 26.8125 32.234375 C 27.1875 32.421875 27.527344 32.667969 27.828125 32.960938 C 29.324219 34.457031 29.324219 36.882812 27.828125 38.378906 C 26.332031 39.875 23.902344 39.875 22.40625 38.378906 C 21.6875 37.660156 21.285156 36.6875 21.285156 35.671875 C 21.285156 34.652344 21.6875 33.679688 22.40625 32.960938 C 22.777344 32.59375 23.1875 32.3125 23.664062 32.125 L 23.664062 18.398438 C 23.207031 18.210938 22.777344 17.933594 22.40625 17.5625 C 21.308594 16.460938 20.980469 14.804688 21.582031 13.371094 L 15.910156 7.703125 L 0.941406 22.65625 C 0.335938 23.261719 0 24.078125 0 24.933594 C 0 25.789062 0.335938 26.605469 0.941406 27.210938 L 22.773438 49.039062 C 24.03125 50.296875 26.070312 50.296875 27.328125 49.039062 L 49.054688 27.34375 C 49.660156 26.738281 50 25.921875 50 25.066406 C 50 24.210938 49.660156 23.394531 49.054688 22.789062 "/>
</g>
</svg>
