<?xml version="1.0" encoding="UTF-8"?>
<svg xmlns="http://www.w3.org/2000/svg" xmlns:xlink="http://www.w3.org/1999/xlink" width="50pt" height="50pt" viewBox="0 0 50 50" version="1.1">
<g id="surface1">
<path style=" stroke:none;fill-rule:nonzero;fill:rgb(89.411765%,30.196078%,14.901961%);fill-opacity:1;" d="M 6.96875 45.003906 L 2.957031 0 L 47.042969 0 L 43.027344 44.996094 L 24.972656 50 Z M 6.96875 45.003906 "/>
<path style=" stroke:none;fill-rule:nonzero;fill:rgb(94.509804%,39.607843%,16.078431%);fill-opacity:1;" d="M 39.589844 42.132812 L 43.023438 3.679688 L 25 3.679688 L 25 46.175781 Z M 39.589844 42.132812 "/>
<path style=" stroke:none;fill-rule:nonzero;fill:rgb(92.156863%,92.156863%,92.156863%);fill-opacity:1;" d="M 24.980469 9.199219 L 11.160156 9.199219 L 12.648438 25.890625 L 25 25.890625 L 25 20.371094 L 17.695312 20.371094 L 17.191406 14.71875 L 25 14.71875 L 25 9.199219 Z M 25 34.6875 L 24.976562 34.695312 L 18.828125 33.035156 L 18.4375 28.632812 L 12.894531 28.632812 L 13.667969 37.296875 L 24.976562 40.421875 L 25 40.414062 Z M 25 34.6875 "/>
<path style=" stroke:none;fill-rule:nonzero;fill:rgb(100%,100%,100%);fill-opacity:1;" d="M 24.980469 25.890625 L 31.777344 25.890625 L 31.152344 33.046875 L 24.996094 34.707031 L 24.996094 40.449219 L 36.3125 37.3125 L 37.828125 20.367188 L 25 20.367188 Z M 38.675781 10.679688 L 38.804688 9.199219 L 24.976562 9.199219 L 24.976562 14.71875 L 38.308594 14.71875 L 38.417969 13.476562 Z M 38.675781 10.679688 "/>
</g>
</svg>
