<?xml version="1.0" encoding="UTF-8"?>
<svg xmlns="http://www.w3.org/2000/svg" xmlns:xlink="http://www.w3.org/1999/xlink" width="50pt" height="50pt" viewBox="0 0 50 50" version="1.1">
<defs>
<radialGradient id="radial0" gradientUnits="userSpaceOnUse" cx="673.845" cy="1118.777" fx="673.845" fy="1118.777" r="646.025" gradientTransform="matrix(0.161316,-0.0270848,0.0164706,0.0979129,-119.162706,-37.699443)">
<stop offset="0" style="stop-color:rgb(99.607843%,83.529412%,46.27451%);stop-opacity:1;"/>
<stop offset="0.263" style="stop-color:rgb(95.686275%,44.313725%,20%);stop-opacity:1;"/>
<stop offset="0.609" style="stop-color:rgb(73.72549%,18.823529%,50.588235%);stop-opacity:1;"/>
<stop offset="1" style="stop-color:rgb(29.803922%,38.823529%,82.352941%);stop-opacity:1;"/>
</radialGradient>
<radialGradient id="radial1" gradientUnits="userSpaceOnUse" cx="673.845" cy="1118.777" fx="673.845" fy="1118.777" r="646.025" gradientTransform="matrix(0.161316,-0.0270848,0.0164706,0.0979129,-119.162706,-37.699443)">
<stop offset="0" style="stop-color:rgb(99.607843%,83.529412%,46.27451%);stop-opacity:1;"/>
<stop offset="0.263" style="stop-color:rgb(95.686275%,44.313725%,20%);stop-opacity:1;"/>
<stop offset="0.609" style="stop-color:rgb(73.72549%,18.823529%,50.588235%);stop-opacity:1;"/>
<stop offset="1" style="stop-color:rgb(29.803922%,38.823529%,82.352941%);stop-opacity:1;"/>
</radialGradient>
<radialGradient id="radial2" gradientUnits="userSpaceOnUse" cx="673.845" cy="1118.777" fx="673.845" fy="1118.777" r="646.025" gradientTransform="matrix(0.161316,-0.0270848,0.0164706,0.0979129,-119.162706,-37.699443)">
<stop offset="0" style="stop-color:rgb(99.607843%,83.529412%,46.27451%);stop-opacity:1;"/>
<stop offset="0.263" style="stop-color:rgb(95.686275%,44.313725%,20%);stop-opacity:1;"/>
<stop offset="0.609" style="stop-color:rgb(73.72549%,18.823529%,50.588235%);stop-opacity:1;"/>
<stop offset="1" style="stop-color:rgb(29.803922%,38.823529%,82.352941%);stop-opacity:1;"/>
</radialGradient>
</defs>
<g id="surface1">
<path style=" stroke:none;fill-rule:nonzero;fill:url(#radial0);" d="M 25.023438 12.261719 C 24.582031 12.261719 24.148438 12.285156 23.71875 12.328125 C 23.289062 12.371094 22.867188 12.4375 22.453125 12.523438 C 22.039062 12.609375 21.628906 12.714844 21.230469 12.839844 L 20.054688 13.269531 L 18.9375 13.808594 L 17.882812 14.449219 L 16.898438 15.1875 L 15.992188 16.011719 L 15.164062 16.921875 L 14.425781 17.90625 L 13.785156 18.957031 L 13.242188 20.074219 C 13.082031 20.457031 12.9375 20.847656 12.8125 21.246094 C 12.6875 21.644531 12.582031 22.054688 12.496094 22.46875 C 12.410156 22.882812 12.347656 23.304688 12.300781 23.734375 C 12.257812 24.160156 12.234375 24.597656 12.234375 25.035156 C 12.234375 25.476562 12.257812 25.910156 12.300781 26.335938 C 12.34375 26.761719 12.410156 27.183594 12.496094 27.601562 C 12.582031 28.019531 12.6875 28.425781 12.8125 28.824219 C 12.9375 29.222656 13.082031 29.617188 13.242188 29.996094 L 13.785156 31.113281 L 14.425781 32.167969 L 15.164062 33.152344 L 15.992188 34.058594 L 16.898438 34.882812 L 17.882812 35.621094 L 18.9375 36.261719 L 20.054688 36.800781 L 21.230469 37.234375 L 22.453125 37.550781 C 22.871094 37.636719 23.292969 37.699219 23.71875 37.742188 C 24.152344 37.789062 24.585938 37.808594 25.023438 37.808594 C 25.460938 37.808594 25.898438 37.789062 26.324219 37.742188 C 26.75 37.699219 27.171875 37.636719 27.589844 37.550781 L 28.816406 37.234375 L 29.988281 36.800781 L 31.105469 36.261719 L 32.160156 35.621094 L 33.144531 34.882812 L 34.054688 34.058594 L 34.878906 33.152344 L 35.617188 32.167969 L 36.261719 31.113281 L 36.800781 29.996094 L 37.230469 28.824219 C 37.355469 28.425781 37.460938 28.015625 37.546875 27.601562 L 37.742188 26.335938 C 37.785156 25.910156 37.808594 25.476562 37.808594 25.035156 C 37.808594 24.597656 37.785156 24.160156 37.742188 23.734375 C 37.699219 23.308594 37.632812 22.886719 37.546875 22.46875 C 37.460938 22.050781 37.355469 21.644531 37.230469 21.246094 L 36.800781 20.074219 L 36.261719 18.957031 L 35.617188 17.90625 L 34.878906 16.921875 L 34.054688 16.011719 L 33.144531 15.1875 L 32.160156 14.449219 L 31.105469 13.808594 L 29.988281 13.269531 L 28.816406 12.835938 L 27.589844 12.523438 L 26.324219 12.328125 C 25.890625 12.285156 25.457031 12.261719 25.023438 12.261719 Z M 25.023438 16.671875 C 25.3125 16.671875 25.601562 16.683594 25.882812 16.714844 L 26.714844 16.839844 L 27.519531 17.042969 L 28.289062 17.324219 L 29.023438 17.675781 L 29.710938 18.09375 L 30.355469 18.574219 L 30.949219 19.109375 L 31.488281 19.703125 L 31.96875 20.347656 L 32.386719 21.039062 L 32.738281 21.769531 C 32.84375 22.019531 32.9375 22.277344 33.015625 22.539062 C 33.097656 22.800781 33.167969 23.070312 33.222656 23.34375 C 33.277344 23.617188 33.320312 23.894531 33.347656 24.175781 L 33.390625 25.035156 C 33.390625 25.328125 33.378906 25.613281 33.347656 25.894531 C 33.320312 26.179688 33.277344 26.457031 33.222656 26.730469 C 33.167969 27.003906 33.097656 27.269531 33.015625 27.535156 L 32.738281 28.304688 L 32.386719 29.035156 L 31.96875 29.726562 L 31.488281 30.367188 L 30.949219 30.960938 L 30.355469 31.5 L 29.710938 31.980469 L 29.023438 32.398438 L 28.289062 32.75 L 27.519531 33.027344 L 26.714844 33.234375 L 25.882812 33.359375 C 25.597656 33.386719 25.308594 33.402344 25.023438 33.402344 C 24.734375 33.402344 24.449219 33.386719 24.160156 33.359375 L 23.328125 33.234375 C 23.054688 33.179688 22.785156 33.109375 22.523438 33.027344 L 21.753906 32.75 L 21.019531 32.398438 L 20.332031 31.980469 L 19.6875 31.5 L 19.09375 30.960938 L 18.554688 30.367188 L 18.074219 29.726562 L 17.65625 29.035156 L 17.304688 28.304688 L 17.027344 27.535156 L 16.820312 26.730469 L 16.695312 25.894531 C 16.667969 25.609375 16.652344 25.324219 16.652344 25.035156 C 16.652344 24.75 16.667969 24.460938 16.695312 24.175781 C 16.722656 23.894531 16.765625 23.617188 16.820312 23.34375 C 16.875 23.070312 16.945312 22.804688 17.027344 22.539062 L 17.304688 21.769531 L 17.65625 21.039062 L 18.074219 20.347656 L 18.554688 19.703125 L 19.09375 19.109375 L 19.6875 18.574219 L 20.332031 18.09375 L 21.019531 17.675781 L 21.753906 17.324219 C 22.003906 17.21875 22.261719 17.125 22.523438 17.042969 L 23.328125 16.839844 C 23.601562 16.785156 23.878906 16.742188 24.160156 16.714844 C 24.449219 16.683594 24.734375 16.671875 25.023438 16.671875 Z M 25.023438 16.671875 "/>
<path style=" stroke:none;fill-rule:nonzero;fill:url(#radial1);" d="M 38.328125 8.628906 C 38.226562 8.628906 38.125 8.632812 38.023438 8.644531 C 37.921875 8.652344 37.820312 8.667969 37.722656 8.6875 C 37.621094 8.710938 37.523438 8.734375 37.425781 8.765625 C 37.332031 8.792969 37.234375 8.828125 37.140625 8.871094 C 37.046875 8.910156 36.957031 8.953125 36.867188 9.003906 C 36.777344 9.050781 36.691406 9.105469 36.609375 9.164062 C 36.523438 9.222656 36.441406 9.28125 36.367188 9.347656 C 36.289062 9.414062 36.214844 9.484375 36.144531 9.558594 C 36.070312 9.628906 36.003906 9.707031 35.941406 9.789062 C 35.878906 9.867188 35.820312 9.949219 35.765625 10.035156 C 35.710938 10.121094 35.660156 10.210938 35.613281 10.300781 C 35.566406 10.394531 35.527344 10.488281 35.488281 10.582031 C 35.453125 10.675781 35.421875 10.773438 35.394531 10.871094 C 35.367188 10.972656 35.34375 11.070312 35.328125 11.171875 C 35.308594 11.273438 35.296875 11.375 35.289062 11.476562 C 35.285156 11.546875 35.28125 11.621094 35.28125 11.691406 C 35.28125 11.792969 35.289062 11.898438 35.296875 12 C 35.308594 12.101562 35.324219 12.203125 35.34375 12.300781 C 35.363281 12.402344 35.386719 12.5 35.417969 12.597656 C 35.449219 12.695312 35.484375 12.792969 35.523438 12.886719 C 35.5625 12.980469 35.605469 13.074219 35.65625 13.164062 C 35.703125 13.25 35.757812 13.339844 35.8125 13.421875 C 35.871094 13.507812 35.933594 13.589844 36 13.667969 C 36.0625 13.746094 36.132812 13.820312 36.207031 13.890625 C 36.277344 13.960938 36.355469 14.03125 36.433594 14.09375 C 36.515625 14.15625 36.597656 14.214844 36.683594 14.273438 C 36.769531 14.328125 36.855469 14.378906 36.945312 14.425781 C 37.035156 14.472656 37.128906 14.511719 37.222656 14.550781 C 37.320312 14.585938 37.414062 14.617188 37.511719 14.644531 C 37.609375 14.671875 37.710938 14.695312 37.808594 14.714844 C 37.910156 14.730469 38.011719 14.742188 38.113281 14.75 C 38.183594 14.753906 38.253906 14.757812 38.328125 14.757812 C 38.429688 14.757812 38.53125 14.753906 38.632812 14.742188 C 38.734375 14.734375 38.832031 14.71875 38.933594 14.695312 C 39.03125 14.675781 39.128906 14.652344 39.226562 14.621094 C 39.324219 14.589844 39.417969 14.554688 39.511719 14.515625 C 39.605469 14.476562 39.699219 14.433594 39.789062 14.382812 C 39.875 14.332031 39.964844 14.28125 40.046875 14.222656 C 40.128906 14.164062 40.210938 14.101562 40.289062 14.039062 C 40.367188 13.972656 40.441406 13.902344 40.511719 13.828125 C 40.582031 13.753906 40.648438 13.679688 40.710938 13.597656 C 40.777344 13.519531 40.835938 13.433594 40.890625 13.347656 C 40.945312 13.261719 40.996094 13.175781 41.042969 13.082031 C 41.085938 12.992188 41.128906 12.898438 41.164062 12.804688 C 41.203125 12.707031 41.234375 12.609375 41.261719 12.511719 C 41.289062 12.414062 41.3125 12.316406 41.328125 12.214844 C 41.34375 12.113281 41.359375 12.011719 41.363281 11.910156 C 41.371094 11.835938 41.371094 11.765625 41.371094 11.691406 C 41.371094 11.589844 41.367188 11.488281 41.355469 11.386719 C 41.347656 11.285156 41.332031 11.183594 41.3125 11.085938 C 41.292969 10.984375 41.265625 10.886719 41.238281 10.789062 C 41.207031 10.691406 41.171875 10.59375 41.132812 10.5 C 41.09375 10.40625 41.046875 10.3125 41 10.222656 C 40.949219 10.132812 40.898438 10.046875 40.839844 9.960938 C 40.78125 9.878906 40.722656 9.796875 40.65625 9.71875 C 40.589844 9.640625 40.523438 9.566406 40.449219 9.492188 C 40.375 9.421875 40.300781 9.355469 40.21875 9.292969 C 40.140625 9.226562 40.058594 9.167969 39.972656 9.113281 C 39.886719 9.058594 39.800781 9.007812 39.707031 8.960938 C 39.617188 8.914062 39.523438 8.875 39.429688 8.835938 C 39.335938 8.800781 39.238281 8.765625 39.140625 8.738281 C 39.042969 8.710938 38.945312 8.691406 38.84375 8.671875 C 38.746094 8.65625 38.644531 8.644531 38.542969 8.636719 C 38.472656 8.628906 38.398438 8.628906 38.328125 8.628906 Z M 38.328125 8.628906 "/>
<path style=" stroke:none;fill-rule:nonzero;fill:url(#radial2);" d="M 22.597656 0.046875 C 21.207031 0.0429688 19.964844 0.046875 18.851562 0.0625 L 15.863281 0.144531 C 14.976562 0.183594 14.195312 0.234375 13.492188 0.296875 C 13.140625 0.332031 12.808594 0.367188 12.496094 0.40625 C 12.195312 0.445312 11.898438 0.488281 11.601562 0.539062 C 11.320312 0.585938 11.050781 0.636719 10.792969 0.695312 C 10.535156 0.75 10.289062 0.8125 10.054688 0.875 C 9.820312 0.941406 9.589844 1.011719 9.363281 1.085938 C 9.140625 1.164062 8.921875 1.242188 8.707031 1.328125 C 8.277344 1.5 7.859375 1.691406 7.425781 1.902344 C 7.09375 2.070312 6.785156 2.234375 6.492188 2.414062 C 6.203125 2.589844 5.925781 2.777344 5.65625 2.980469 C 5.375 3.191406 5.105469 3.414062 4.851562 3.648438 C 4.582031 3.894531 4.304688 4.164062 4.019531 4.464844 C 3.660156 4.84375 3.347656 5.195312 3.070312 5.539062 C 2.933594 5.710938 2.800781 5.882812 2.679688 6.054688 C 2.558594 6.222656 2.445312 6.394531 2.332031 6.570312 C 2.222656 6.746094 2.121094 6.925781 2.023438 7.105469 C 1.921875 7.292969 1.828125 7.480469 1.738281 7.671875 C 1.554688 8.066406 1.386719 8.488281 1.214844 8.957031 C 1.089844 9.304688 0.976562 9.65625 0.878906 10.015625 C 0.777344 10.378906 0.6875 10.757812 0.605469 11.171875 C 0.527344 11.582031 0.457031 12.027344 0.394531 12.515625 C 0.328125 13.054688 0.273438 13.59375 0.234375 14.132812 C 0.191406 14.726562 0.152344 15.378906 0.121094 16.105469 L 0.0507812 18.523438 L 0.0117188 21.472656 L 0 25.035156 L 0.0351562 30.214844 L 0.136719 34.136719 L 0.214844 35.671875 L 0.3125 36.941406 C 0.34375 37.285156 0.382812 37.625 0.433594 37.964844 C 0.476562 38.269531 0.523438 38.53125 0.570312 38.761719 C 0.671875 39.226562 0.792969 39.6875 0.929688 40.144531 C 1.0625 40.582031 1.214844 41.011719 1.382812 41.4375 C 1.550781 41.851562 1.734375 42.25 1.933594 42.636719 C 2.132812 43.019531 2.347656 43.390625 2.578125 43.746094 C 2.808594 44.101562 3.054688 44.441406 3.316406 44.769531 C 3.582031 45.09375 3.859375 45.40625 4.15625 45.707031 C 4.453125 46.003906 4.761719 46.285156 5.09375 46.554688 C 5.425781 46.828125 5.769531 47.085938 6.128906 47.324219 C 6.460938 47.546875 6.789062 47.75 7.121094 47.933594 C 7.449219 48.121094 7.785156 48.292969 8.128906 48.445312 C 8.472656 48.597656 8.824219 48.738281 9.191406 48.863281 C 9.558594 48.988281 9.941406 49.097656 10.34375 49.195312 C 10.75 49.292969 11.179688 49.378906 11.632812 49.457031 C 12.085938 49.53125 12.570312 49.597656 13.085938 49.652344 C 13.605469 49.707031 14.15625 49.753906 14.75 49.792969 C 15.34375 49.828125 15.976562 49.859375 16.660156 49.886719 C 17.710938 49.921875 19.304688 49.945312 21.144531 49.953125 L 27.09375 49.941406 L 32.730469 49.863281 L 34.871094 49.804688 L 36.265625 49.730469 C 36.566406 49.707031 36.859375 49.679688 37.140625 49.644531 C 37.425781 49.609375 37.703125 49.570312 37.976562 49.527344 C 38.246094 49.484375 38.511719 49.433594 38.773438 49.378906 C 39.03125 49.328125 39.289062 49.265625 39.542969 49.199219 C 39.796875 49.136719 40.042969 49.0625 40.289062 48.984375 C 40.539062 48.910156 40.78125 48.824219 41.023438 48.734375 C 41.265625 48.644531 41.507812 48.550781 41.746094 48.445312 C 41.988281 48.34375 42.230469 48.234375 42.46875 48.117188 C 42.839844 47.941406 43.140625 47.792969 43.402344 47.644531 C 43.648438 47.511719 43.882812 47.359375 44.109375 47.195312 C 44.335938 47.027344 44.558594 46.839844 44.8125 46.605469 C 45.070312 46.371094 45.359375 46.085938 45.71875 45.726562 C 46.035156 45.410156 46.300781 45.136719 46.53125 44.886719 C 46.761719 44.636719 46.957031 44.410156 47.125 44.195312 C 47.289062 43.988281 47.4375 43.773438 47.578125 43.554688 C 47.710938 43.335938 47.835938 43.113281 47.964844 42.863281 C 48.15625 42.488281 48.328125 42.140625 48.480469 41.804688 C 48.628906 41.484375 48.761719 41.15625 48.886719 40.820312 C 49.007812 40.492188 49.109375 40.152344 49.199219 39.8125 C 49.289062 39.460938 49.367188 39.09375 49.433594 38.6875 C 49.5 38.28125 49.558594 37.835938 49.605469 37.34375 C 49.65625 36.851562 49.699219 36.304688 49.734375 35.691406 L 49.832031 33.632812 L 49.917969 31.074219 L 49.976562 28.222656 L 50 25.242188 L 49.945312 19.386719 L 49.875 16.765625 L 49.777344 14.511719 L 49.65625 12.757812 C 49.609375 12.269531 49.5625 11.882812 49.511719 11.625 C 49.457031 11.335938 49.394531 11.050781 49.324219 10.765625 C 49.257812 10.488281 49.183594 10.214844 49.101562 9.941406 C 49.023438 9.671875 48.9375 9.410156 48.847656 9.148438 C 48.757812 8.886719 48.660156 8.636719 48.558594 8.386719 C 48.457031 8.140625 48.347656 7.898438 48.234375 7.660156 C 48.121094 7.425781 48.003906 7.191406 47.878906 6.96875 C 47.75 6.742188 47.621094 6.519531 47.484375 6.304688 C 47.347656 6.089844 47.207031 5.882812 47.058594 5.679688 C 46.910156 5.476562 46.757812 5.277344 46.597656 5.082031 C 46.441406 4.890625 46.277344 4.703125 46.105469 4.519531 C 45.933594 4.339844 45.757812 4.164062 45.578125 3.992188 C 45.398438 3.820312 45.210938 3.65625 45.015625 3.496094 C 44.824219 3.335938 44.625 3.179688 44.421875 3.035156 C 44.214844 2.882812 44.007812 2.742188 43.792969 2.605469 C 43.574219 2.464844 43.355469 2.332031 43.128906 2.207031 C 42.902344 2.078125 42.667969 1.957031 42.433594 1.84375 C 42.042969 1.652344 41.679688 1.484375 41.324219 1.335938 C 40.976562 1.1875 40.621094 1.054688 40.257812 0.941406 C 39.894531 0.824219 39.515625 0.726562 39.101562 0.644531 C 38.683594 0.558594 38.230469 0.488281 37.714844 0.425781 C 37.203125 0.367188 36.628906 0.320312 35.972656 0.277344 C 35.316406 0.238281 34.578125 0.207031 33.734375 0.179688 L 30.867188 0.117188 L 27.242188 0.0742188 Z M 25.007812 4.449219 L 31.703125 4.488281 L 34.230469 4.539062 C 34.925781 4.558594 35.457031 4.578125 35.769531 4.605469 C 36.175781 4.640625 36.558594 4.683594 36.929688 4.734375 C 37.285156 4.785156 37.636719 4.84375 37.984375 4.917969 C 38.324219 4.988281 38.644531 5.066406 38.949219 5.15625 C 39.257812 5.246094 39.550781 5.347656 39.832031 5.460938 C 40.113281 5.574219 40.382812 5.695312 40.640625 5.832031 C 40.898438 5.964844 41.148438 6.113281 41.390625 6.273438 C 41.628906 6.433594 41.863281 6.605469 42.085938 6.789062 C 42.3125 6.972656 42.53125 7.171875 42.742188 7.382812 C 42.96875 7.609375 43.175781 7.835938 43.367188 8.070312 C 43.554688 8.304688 43.730469 8.550781 43.894531 8.804688 C 44.054688 9.0625 44.203125 9.332031 44.332031 9.609375 C 44.464844 9.890625 44.585938 10.1875 44.691406 10.503906 C 44.796875 10.820312 44.894531 11.15625 44.976562 11.515625 C 45.066406 11.898438 45.140625 12.28125 45.199219 12.667969 C 45.265625 13.078125 45.320312 13.515625 45.363281 13.984375 C 45.410156 14.453125 45.449219 14.953125 45.480469 15.488281 C 45.507812 15.914062 45.527344 16.480469 45.546875 17.148438 L 45.59375 19.425781 L 45.628906 25.003906 L 45.589844 30.574219 L 45.539062 32.84375 L 45.472656 34.496094 C 45.425781 35.269531 45.378906 35.921875 45.320312 36.484375 C 45.289062 36.769531 45.257812 37.03125 45.222656 37.277344 C 45.1875 37.507812 45.148438 37.738281 45.101562 37.96875 C 45.0625 38.179688 45.011719 38.386719 44.957031 38.59375 C 44.90625 38.789062 44.847656 38.984375 44.78125 39.179688 C 44.714844 39.375 44.640625 39.566406 44.5625 39.753906 C 44.480469 39.957031 44.394531 40.15625 44.304688 40.351562 C 44.222656 40.527344 44.136719 40.695312 44.046875 40.863281 C 43.957031 41.027344 43.863281 41.1875 43.761719 41.347656 C 43.664062 41.503906 43.558594 41.65625 43.449219 41.800781 C 43.339844 41.949219 43.226562 42.09375 43.109375 42.230469 C 42.992188 42.367188 42.867188 42.5 42.738281 42.628906 C 42.613281 42.757812 42.480469 42.882812 42.339844 43.003906 C 42.203125 43.125 42.058594 43.238281 41.914062 43.351562 C 41.765625 43.460938 41.613281 43.570312 41.453125 43.671875 C 41.296875 43.773438 41.132812 43.871094 40.964844 43.964844 C 40.796875 44.058594 40.621094 44.148438 40.445312 44.234375 C 40.261719 44.320312 40.078125 44.398438 39.890625 44.476562 C 39.699219 44.554688 39.503906 44.625 39.304688 44.691406 C 38.90625 44.828125 38.484375 44.949219 38.039062 45.050781 C 37.574219 45.160156 37.109375 45.246094 36.636719 45.3125 C 36.457031 45.339844 36.039062 45.367188 35.445312 45.386719 L 33.171875 45.453125 L 26.734375 45.535156 L 19.996094 45.546875 L 17.351562 45.519531 L 15.632812 45.464844 L 14.367188 45.375 C 13.972656 45.34375 13.605469 45.304688 13.265625 45.261719 C 12.921875 45.222656 12.601562 45.175781 12.300781 45.121094 C 12.015625 45.074219 11.734375 45.015625 11.453125 44.945312 C 11.199219 44.882812 10.945312 44.8125 10.695312 44.730469 C 10.453125 44.648438 10.222656 44.558594 10 44.464844 C 9.773438 44.367188 9.554688 44.261719 9.339844 44.144531 C 9.125 44.027344 8.910156 43.902344 8.695312 43.765625 C 8.53125 43.660156 8.375 43.558594 8.222656 43.445312 C 8.070312 43.335938 7.925781 43.222656 7.785156 43.109375 C 7.644531 42.992188 7.507812 42.871094 7.378906 42.75 C 7.25 42.628906 7.121094 42.5 7.003906 42.367188 C 6.882812 42.238281 6.765625 42.101562 6.65625 41.964844 C 6.546875 41.824219 6.441406 41.679688 6.339844 41.53125 C 6.238281 41.378906 6.144531 41.226562 6.054688 41.070312 C 5.960938 40.910156 5.875 40.746094 5.792969 40.578125 C 5.707031 40.40625 5.628906 40.230469 5.558594 40.054688 C 5.484375 39.871094 5.414062 39.6875 5.347656 39.492188 C 5.21875 39.109375 5.101562 38.699219 5.003906 38.261719 C 4.902344 37.824219 4.816406 37.359375 4.742188 36.863281 C 4.671875 36.367188 4.613281 35.84375 4.566406 35.285156 C 4.53125 34.875 4.503906 34.234375 4.484375 33.429688 L 4.441406 30.558594 L 4.457031 23.238281 L 4.582031 16.242188 L 4.679688 13.78125 L 4.734375 12.964844 C 4.753906 12.746094 4.773438 12.585938 4.792969 12.488281 C 4.859375 12.171875 4.925781 11.875 4.992188 11.597656 C 5.058594 11.335938 5.128906 11.078125 5.207031 10.820312 C 5.28125 10.574219 5.359375 10.347656 5.445312 10.132812 C 5.527344 9.921875 5.617188 9.71875 5.714844 9.515625 C 5.8125 9.320312 5.917969 9.132812 6.03125 8.953125 C 6.144531 8.769531 6.265625 8.59375 6.398438 8.417969 C 6.53125 8.242188 6.675781 8.070312 6.832031 7.894531 C 6.988281 7.714844 7.15625 7.539062 7.339844 7.355469 C 7.550781 7.140625 7.773438 6.9375 8.003906 6.738281 C 8.222656 6.554688 8.449219 6.382812 8.683594 6.21875 C 8.914062 6.058594 9.152344 5.917969 9.398438 5.785156 C 9.644531 5.65625 9.902344 5.535156 10.171875 5.429688 C 10.441406 5.324219 10.726562 5.226562 11.027344 5.140625 C 11.339844 5.054688 11.660156 4.976562 11.984375 4.914062 C 12.320312 4.847656 12.679688 4.792969 13.0625 4.742188 C 13.449219 4.691406 13.855469 4.648438 14.292969 4.609375 C 14.597656 4.582031 15.121094 4.558594 15.8125 4.539062 L 18.324219 4.488281 L 25.011719 4.449219 Z M 25.007812 4.449219 "/>
</g>
</svg>
