<?xml version="1.0" encoding="UTF-8"?>
<svg xmlns="http://www.w3.org/2000/svg" xmlns:xlink="http://www.w3.org/1999/xlink" width="50pt" height="50pt" viewBox="0 0 50 50" version="1.1">
<g id="surface1">
<path style=" stroke:none;fill-rule:nonzero;fill:rgb(0.392157%,46.666667%,70.980392%);fill-opacity:1;" d="M 46.296875 0 L 3.691406 0 C 1.65625 0 0 1.617188 0 3.601562 L 0 46.390625 C 0 48.382812 1.65625 50 3.691406 50 L 46.300781 50 C 48.339844 50 50 48.382812 50 46.390625 L 50 3.601562 C 50 1.617188 48.339844 0 46.296875 0 Z M 46.296875 0 "/>
<path style=" stroke:none;fill-rule:nonzero;fill:rgb(100%,100%,100%);fill-opacity:1;" d="M 7.414062 18.746094 L 14.84375 18.746094 L 14.84375 42.605469 L 7.414062 42.605469 Z M 11.125 6.871094 C 13.492188 6.871094 15.421875 8.796875 15.421875 11.167969 C 15.421875 13.539062 13.492188 15.46875 11.125 15.46875 C 8.75 15.464844 6.828125 13.539062 6.820312 11.167969 C 6.820312 10.027344 7.273438 8.933594 8.082031 8.128906 C 8.890625 7.320312 9.984375 6.867188 11.125 6.871094 M 19.484375 18.746094 L 26.59375 18.746094 L 26.59375 22.007812 L 26.695312 22.007812 C 27.683594 20.132812 30.101562 18.152344 33.726562 18.152344 C 41.234375 18.152344 42.621094 23.09375 42.621094 29.519531 L 42.621094 42.605469 L 35.210938 42.605469 L 35.210938 31 C 35.210938 28.234375 35.160156 24.671875 31.355469 24.671875 C 27.496094 24.671875 26.902344 27.6875 26.902344 30.796875 L 26.902344 42.601562 L 19.492188 42.601562 L 19.492188 18.742188 Z M 19.484375 18.746094 "/>
</g>
</svg>
