<svg width="264" height="280" viewBox="0 0 264 280" fill="none" xmlns="http://www.w3.org/2000/svg">
<path fill-rule="evenodd" clip-rule="evenodd" d="M156 180.6V199H160C199.8 199 232 231.2 232 271V280H32V271C32 231.2 64.2 199 104 199H108V180.6C90.8 172.4 78.4 155.7 76.3 135.9C70.5 135.1 66 130.1 66 124V110C66 104.1 70.3 99.1 76 98.2V92C76 61.1 101.1 36 132 36C162.9 36 188 61.1 188 92V98.2C193.7 99.2 198 104.1 198 110V124C198 130.1 193.5 135.1 187.7 135.9C185.6 155.7 173.2 172.4 156 180.6Z" fill="#D0C6AC"/>
<mask id="mask0" mask-type="alpha" maskUnits="userSpaceOnUse" x="32" y="36" width="200" height="244">
<path fill-rule="evenodd" clip-rule="evenodd" d="M156 180.6V199H160C199.8 199 232 231.2 232 271V280H32V271C32 231.2 64.2 199 104 199H108V180.6C90.8 172.4 78.4 155.7 76.3 135.9C70.5 135.1 66 130.1 66 124V110C66 104.1 70.3 99.1 76 98.2V92C76 61.1 101.1 36 132 36C162.9 36 188 61.1 188 92V98.2C193.7 99.2 198 104.1 198 110V124C198 130.1 193.5 135.1 187.7 135.9C185.6 155.7 173.2 172.4 156 180.6Z" fill="white"/>
</mask>
<g mask="url(#mask0)">
<path d="M264 36H0V280H264V36Z" fill="#FEDAAF"/>
</g>
<mask id="mask1" mask-type="alpha" maskUnits="userSpaceOnUse" x="32" y="36" width="200" height="244">
<path fill-rule="evenodd" clip-rule="evenodd" d="M156 180.6V199H160C199.8 199 232 231.2 232 271V280H32V271C32 231.2 64.2 199 104 199H108V180.6C90.8 172.4 78.4 155.7 76.3 135.9C70.5 135.1 66 130.1 66 124V110C66 104.1 70.3 99.1 76 98.2V92C76 61.1 101.1 36 132 36C162.9 36 188 61.1 188 92V98.2C193.7 99.2 198 104.1 198 110V124C198 130.1 193.5 135.1 187.7 135.9C185.6 155.7 173.2 172.4 156 180.6Z" fill="white"/>
</mask>
<g mask="url(#mask1)">
<path fill-rule="evenodd" clip-rule="evenodd" d="M188 115V138C188 168.9 162.9 194 132 194C101.1 194 76 168.9 76 138V115V130C76 160.9 101.1 186 132 186C162.9 186 188 160.9 188 130V115Z" fill="black" fill-opacity="0.1"/>
</g>
<path fill-rule="evenodd" clip-rule="evenodd" d="M166 199.3C203 202.3 232 233.3 232 271.1V280H32V271.1C32 233 61.6 201.8 99 199.2C99 199.6 99 199.9 99 200.3C99 212.2 114 221.8 132.5 221.8C151 221.8 166 212.2 166 200.3C166 200 166 199.6 166 199.3Z" fill="#E6E6E6"/>
<mask id="mask2" mask-type="alpha" maskUnits="userSpaceOnUse" x="32" y="199" width="200" height="81">
<path fill-rule="evenodd" clip-rule="evenodd" d="M166 199.3C203 202.3 232 233.3 232 271.1V280H32V271.1C32 233 61.6 201.8 99 199.2C99 199.6 99 199.9 99 200.3C99 212.2 114 221.8 132.5 221.8C151 221.8 166 212.2 166 200.3C166 200 166 199.6 166 199.3Z" fill="white"/>
</mask>
<g mask="url(#mask2)">
<path d="M264 170H0V280H264V170Z" fill="#1E90FF"/>
</g>
<mask id="mask3" mask-type="alpha" maskUnits="userSpaceOnUse" x="32" y="199" width="200" height="81">
<path fill-rule="evenodd" clip-rule="evenodd" d="M166 199.3C203 202.3 232 233.3 232 271.1V280H32V271.1C32 233 61.6 201.8 99 199.2C99 199.6 99 199.9 99 200.3C99 212.2 114 221.8 132.5 221.8C151 221.8 166 212.2 166 200.3C166 200 166 199.6 166 199.3Z" fill="white"/>
</mask>
<g mask="url(#mask3)">
<g opacity="0.6">
<g opacity="0.6">
<path opacity="0.6" d="M132.5 228.7C154.37 228.7 172.1 216.656 172.1 201.8C172.1 186.944 154.37 174.9 132.5 174.9C110.63 174.9 92.9 186.944 92.9 201.8C92.9 216.656 110.63 228.7 132.5 228.7Z" fill="black" fill-opacity="0.16"/>
</g>
</g>
</g>
<path fill-rule="evenodd" clip-rule="evenodd" d="M113.1 149.1C114.2 158.6 122.2 166 132 166C141.8 166 149.9 158.6 150.9 149C151 148.2 150.1 147 149.1 147C134.2 147 122.8 147 115.1 147C114 147 113 148.2 113.1 149.1Z" fill="black" fill-opacity="0.7"/>
<mask id="mask4" mask-type="alpha" maskUnits="userSpaceOnUse" x="113" y="147" width="38" height="19">
<path fill-rule="evenodd" clip-rule="evenodd" d="M113.1 149.1C114.2 158.6 122.2 166 132 166C141.8 166 149.9 158.6 150.9 149C151 148.2 150.1 147 149.1 147C134.2 147 122.8 147 115.1 147C114 147 113 148.2 113.1 149.1Z" fill="white"/>
</mask>
<g mask="url(#mask4)">
<path fill-rule="evenodd" clip-rule="evenodd" d="M122 136H143C145.8 136 148 138.2 148 141V147C148 149.8 145.8 152 143 152H122C119.2 152 117 149.8 117 147V141C117 138.2 119.2 136 122 136Z" fill="white"/>
</g>
<mask id="mask5" mask-type="alpha" maskUnits="userSpaceOnUse" x="113" y="147" width="38" height="19">
<path fill-rule="evenodd" clip-rule="evenodd" d="M113.1 149.1C114.2 158.6 122.2 166 132 166C141.8 166 149.9 158.6 150.9 149C151 148.2 150.1 147 149.1 147C134.2 147 122.8 147 115.1 147C114 147 113 148.2 113.1 149.1Z" fill="white"/>
</mask>
<g mask="url(#mask5)">
<path d="M127 180C133.075 180 138 175.075 138 169C138 162.925 133.075 158 127 158C120.925 158 116 162.925 116 169C116 175.075 120.925 180 127 180Z" fill="#FF4F4F"/>
<path d="M137 180C143.075 180 148 175.075 148 169C148 162.925 143.075 158 137 158C130.925 158 126 162.925 126 169C126 175.075 130.925 180 137 180Z" fill="#FF4F4F"/>
</g>
<path fill-rule="evenodd" clip-rule="evenodd" d="M120 130C120 134.4 125.4 138 132 138C138.6 138 144 134.4 144 130" fill="black" fill-opacity="0.16"/>
<path fill-rule="evenodd" clip-rule="evenodd" d="M92.2 112.4C94 108.6 98.2 106 103 106C107.8 106 112 108.6 113.8 112.4C114.4 113.5 113.6 114.4 112.8 113.8C110.3 111.7 106.9 110.4 103 110.4C99.3 110.4 95.9 111.6 93.4 113.6C92.5 114.3 91.6 113.6 92.2 112.4Z" fill="black" fill-opacity="0.6"/>
<path fill-rule="evenodd" clip-rule="evenodd" d="M150.2 112.4C152 108.6 156.2 106 161 106C165.8 106 170 108.6 171.8 112.4C172.4 113.5 171.6 114.4 170.8 113.8C168.3 111.7 164.9 110.4 161 110.4C157.3 110.4 153.9 111.6 151.4 113.6C150.5 114.3 149.6 113.6 150.2 112.4Z" fill="black" fill-opacity="0.6"/>
<path fill-rule="evenodd" clip-rule="evenodd" d="M102.5 88.1C96.7 88.4 87.3 92.6 87.5 98.4C87.5 98.6 87.8 98.7 87.9 98.5C90.7 95.5 110.2 92.6 117.1 94.1C117.7 94.2 118.2 93.6 117.8 93.2C114.5 89.5 107.7 87.9 102.5 88.1Z" fill="black" fill-opacity="0.6"/>
<path fill-rule="evenodd" clip-rule="evenodd" d="M162.5 88.1C168.3 88.4 177.7 92.6 177.5 98.4C177.5 98.6 177.2 98.7 177.1 98.5C174.3 95.5 154.8 92.6 147.9 94.1C147.3 94.2 146.8 93.6 147.2 93.2C150.5 89.5 157.3 87.9 162.5 88.1Z" fill="black" fill-opacity="0.6"/>
<mask id="mask6" mask-type="alpha" maskUnits="userSpaceOnUse" x="0" y="0" width="264" height="280">
<path d="M264 0H0V280H264V0Z" fill="white"/>
</mask>
<g mask="url(#mask6)">
<path fill-rule="evenodd" clip-rule="evenodd" d="M182.7 38.9C188.1 33.9 189.4 23.9 186.3 17.4C182.5 9.39999 174.9 8.39999 167.6 11.9C160.7 15.2 154.5 16.3 147 14.7C139.7 13.2 132.9 10.4 125.4 9.99999C113 9.29999 101 13.9 92.6 23.1C91 24.9 89.7 26.9 88.5 28.9C87.5 30.5 86.4 32.3 86 34.2C85.8 35.1 86.2 37.3 85.7 38C85.2 38.8 83.4 39.5 82.6 40.1C81 41.3 79.7 42.6 78.4 44.1C75.7 47.3 74.3 50.7 73 54.7C68.9 67.9 68.5 83.7 73.9 96.7C74.6 98.4 76.8 102.1 78.1 98.3C78.4 97.6 77.8 95.1 77.8 94.4C77.8 91.7 79.3 73.7 85.8 63.6C87.9 60.3 97.8 48 99.8 47.9C100.9 49.6 111.7 60.4 139.7 59.1C152.4 58.5 162.1 52.8 164.4 50.4C165.4 55.9 177.4 64.2 179.2 67.6C184.5 77.4 185.6 97.9 187.6 97.9C189.6 97.9 191.1 92.7 191.5 91.7C194.6 84.3 195.1 75.1 194.8 67.1C194.5 57 190.3 45.9 182.7 38.9Z" fill="#28354B"/>
<mask id="mask7" mask-type="alpha" maskUnits="userSpaceOnUse" x="69" y="9" width="126" height="91">
<path fill-rule="evenodd" clip-rule="evenodd" d="M182.7 38.9C188.1 33.9 189.4 23.9 186.3 17.4C182.5 9.39999 174.9 8.39999 167.6 11.9C160.7 15.2 154.5 16.3 147 14.7C139.7 13.2 132.9 10.4 125.4 9.99999C113 9.29999 101 13.9 92.6 23.1C91 24.9 89.7 26.9 88.5 28.9C87.5 30.5 86.4 32.3 86 34.2C85.8 35.1 86.2 37.3 85.7 38C85.2 38.8 83.4 39.5 82.6 40.1C81 41.3 79.7 42.6 78.4 44.1C75.7 47.3 74.3 50.7 73 54.7C68.9 67.9 68.5 83.7 73.9 96.7C74.6 98.4 76.8 102.1 78.1 98.3C78.4 97.6 77.8 95.1 77.8 94.4C77.8 91.7 79.3 73.7 85.8 63.6C87.9 60.3 97.8 48 99.8 47.9C100.9 49.6 111.7 60.4 139.7 59.1C152.4 58.5 162.1 52.8 164.4 50.4C165.4 55.9 177.4 64.2 179.2 67.6C184.5 77.4 185.6 97.9 187.6 97.9C189.6 97.9 191.1 92.7 191.5 91.7C194.6 84.3 195.1 75.1 194.8 67.1C194.5 57 190.3 45.9 182.7 38.9Z" fill="white"/>
</mask>
<g mask="url(#mask7)">
<path d="M263 0H-1V280H263V0Z" fill="#68463F"/>
</g>
</g>
</svg>
