<?xml version="1.0" encoding="UTF-8"?>
<svg xmlns="http://www.w3.org/2000/svg" xmlns:xlink="http://www.w3.org/1999/xlink" width="50pt" height="50pt" viewBox="0 0 50 50" version="1.1">
<g id="surface1">
<path style=" stroke:none;fill-rule:nonzero;fill:rgb(81.176471%,39.215686%,60.392157%);fill-opacity:1;" d="M 43.042969 27.78125 C 41.292969 27.792969 39.78125 28.210938 38.511719 28.835938 C 38.042969 27.90625 37.574219 27.097656 37.496094 26.492188 C 37.40625 25.789062 37.300781 25.359375 37.40625 24.519531 C 37.515625 23.679688 38.003906 22.488281 38.003906 22.390625 C 37.992188 22.300781 37.894531 21.871094 36.890625 21.863281 C 35.882812 21.855469 35.015625 22.058594 34.917969 22.324219 C 34.742188 22.808594 34.601562 23.308594 34.496094 23.816406 C 34.320312 24.734375 32.484375 27.988281 31.441406 29.695312 C 31.097656 29.03125 30.804688 28.445312 30.746094 27.976562 C 30.65625 27.273438 30.550781 26.84375 30.65625 26.003906 C 30.765625 25.164062 31.253906 23.972656 31.253906 23.875 C 31.246094 23.789062 31.144531 23.359375 30.140625 23.347656 C 29.136719 23.339844 28.265625 23.542969 28.167969 23.808594 C 28.070312 24.074219 27.960938 24.699219 27.746094 25.304688 C 27.542969 25.910156 25.101562 31.339844 24.464844 32.753906 C 24.144531 33.476562 23.859375 34.054688 23.65625 34.445312 C 23.449219 34.835938 23.644531 34.472656 23.625 34.511719 L 23.351562 35.03125 L 23.351562 35.039062 C 23.214844 35.285156 23.070312 35.519531 23 35.519531 C 22.953125 35.519531 22.855469 34.863281 23.019531 33.964844 C 23.382812 32.082031 24.261719 29.140625 24.25 29.035156 C 24.25 28.984375 24.417969 28.46875 23.683594 28.203125 C 22.972656 27.941406 22.71875 28.378906 22.660156 28.378906 C 22.601562 28.378906 22.550781 28.535156 22.550781 28.535156 C 22.550781 28.535156 23.34375 25.226562 21.039062 25.226562 C 19.59375 25.226562 17.601562 26.796875 16.613281 28.234375 L 11.632812 30.957031 L 11.523438 30.839844 C 8.734375 27.859375 3.566406 25.75 3.78125 21.746094 C 3.859375 20.289062 4.367188 16.453125 13.703125 11.804688 C 21.351562 7.996094 27.472656 9.039062 28.539062 11.363281 C 30.054688 14.683594 25.265625 20.855469 17.316406 21.746094 C 14.289062 22.089844 12.699219 20.917969 12.296875 20.476562 C 11.875 20.019531 11.816406 20 11.660156 20.085938 C 11.40625 20.222656 11.5625 20.632812 11.660156 20.878906 C 11.894531 21.492188 12.871094 22.585938 14.53125 23.132812 C 15.988281 23.613281 19.542969 23.875 23.839844 22.214844 C 28.65625 20.351562 32.414062 15.175781 31.3125 10.847656 C 30.1875 6.445312 22.882812 5 15.976562 7.449219 C 11.867188 8.914062 7.421875 11.199219 4.21875 14.195312 C 0.402344 17.75 -0.203125 20.859375 0.0507812 22.148438 C 0.9375 26.746094 7.277344 29.746094 9.816406 31.960938 L 9.464844 32.15625 C 8.195312 32.78125 3.359375 35.3125 2.148438 37.988281 C 0.78125 41.015625 2.363281 43.195312 3.417969 43.488281 C 6.679688 44.394531 10.019531 42.765625 11.828125 40.078125 C 13.625 37.390625 13.410156 33.90625 12.578125 32.3125 L 12.550781 32.253906 L 13.546875 31.667969 C 14.191406 31.289062 14.824219 30.9375 15.382812 30.632812 C 15.070312 31.484375 14.84375 32.488281 14.726562 33.953125 C 14.589844 35.671875 15.292969 37.898438 16.222656 38.78125 C 16.632812 39.160156 17.121094 39.171875 17.421875 39.171875 C 18.496094 39.171875 18.984375 38.28125 19.523438 37.21875 C 20.1875 35.917969 20.773438 34.414062 20.773438 34.414062 C 20.773438 34.414062 20.039062 38.488281 22.042969 38.488281 C 22.777344 38.488281 23.507812 37.539062 23.839844 37.050781 L 23.839844 37.058594 C 23.839844 37.058594 23.859375 37.03125 23.898438 36.960938 C 23.976562 36.84375 24.015625 36.777344 24.015625 36.777344 L 24.015625 36.757812 C 24.308594 36.25 24.964844 35.085938 25.941406 33.164062 C 27.199219 30.683594 28.410156 27.578125 28.410156 27.578125 C 28.410156 27.578125 28.527344 28.339844 28.890625 29.589844 C 29.105469 30.332031 29.574219 31.140625 29.933594 31.933594 L 29.464844 32.578125 L 29.476562 32.585938 C 29.226562 32.917969 28.96875 33.246094 28.703125 33.5625 C 27.707031 34.753906 26.515625 36.113281 26.359375 36.503906 C 26.175781 36.964844 26.214844 37.304688 26.574219 37.578125 C 26.839844 37.773438 27.308594 37.8125 27.804688 37.773438 C 28.703125 37.714844 29.328125 37.488281 29.640625 37.351562 C 30.207031 37.152344 30.738281 36.871094 31.222656 36.523438 C 32.199219 35.800781 32.796875 34.773438 32.738281 33.40625 C 32.707031 32.65625 32.464844 31.914062 32.160156 31.210938 L 32.425781 30.820312 C 33.96875 28.5625 35.160156 26.082031 35.160156 26.082031 C 35.160156 26.082031 35.277344 26.84375 35.636719 28.09375 C 35.824219 28.730469 36.195312 29.421875 36.527344 30.105469 C 35.082031 31.289062 34.171875 32.65625 33.859375 33.554688 C 33.285156 35.214844 33.734375 35.964844 34.582031 36.140625 C 34.964844 36.21875 35.511719 36.042969 35.921875 35.867188 C 36.429688 35.703125 37.046875 35.417969 37.613281 35 C 38.589844 34.277344 39.527344 33.269531 39.476562 31.914062 C 39.449219 31.289062 39.28125 30.671875 39.058594 30.085938 C 40.289062 29.578125 41.878906 29.285156 43.902344 29.527344 C 48.246094 30.035156 49.105469 32.75 48.941406 33.882812 C 48.773438 35.015625 47.867188 35.640625 47.5625 35.835938 C 47.257812 36.023438 47.160156 36.089844 47.191406 36.226562 C 47.230469 36.433594 47.367188 36.421875 47.632812 36.382812 C 47.992188 36.324219 49.917969 35.457031 49.996094 33.367188 C 50.113281 30.679688 47.5625 27.75 43.042969 27.78125 Z M 9.523438 39.082031 C 8.085938 40.65625 6.066406 41.25 5.207031 40.742188 C 4.277344 40.203125 4.640625 37.890625 6.410156 36.21875 C 7.484375 35.203125 8.878906 34.265625 9.796875 33.691406 L 10.6875 33.152344 C 10.746094 33.113281 10.785156 33.09375 10.785156 33.09375 C 10.851562 33.054688 10.929688 33.007812 11.007812 32.957031 C 11.664062 35.339844 11.039062 37.429688 9.523438 39.082031 Z M 20.023438 31.941406 C 19.523438 33.164062 18.46875 36.296875 17.835938 36.121094 C 17.289062 35.976562 16.957031 33.601562 17.726562 31.257812 C 18.117188 30.078125 18.949219 28.671875 19.4375 28.125 C 20.230469 27.246094 21.089844 26.953125 21.304688 27.3125 C 21.558594 27.78125 20.335938 31.179688 20.023438 31.941406 Z M 28.6875 36.082031 C 28.472656 36.191406 28.277344 36.269531 28.1875 36.210938 C 28.117188 36.171875 28.277344 36.023438 28.277344 36.023438 C 28.277344 36.023438 29.359375 34.863281 29.789062 34.324219 L 30.640625 33.242188 L 30.640625 33.359375 C 30.640625 34.765625 29.292969 35.703125 28.6875 36.082031 Z M 35.367188 34.558594 C 35.210938 34.441406 35.230469 34.082031 35.757812 32.949219 C 35.960938 32.5 36.429688 31.746094 37.242188 31.035156 C 37.339844 31.328125 37.398438 31.609375 37.386719 31.875 C 37.378906 33.632812 36.128906 34.285156 35.367188 34.558594 Z M 35.367188 34.558594 "/>
</g>
</svg>
