<?xml version="1.0" encoding="UTF-8"?>
<svg xmlns="http://www.w3.org/2000/svg" xmlns:xlink="http://www.w3.org/1999/xlink" width="50pt" height="50pt" viewBox="0 0 50 50" version="1.1">
<g id="surface1">
<path style=" stroke:none;fill-rule:nonzero;fill:rgb(0%,47.843137%,80%);fill-opacity:1;" d="M 0 25 L 0 50 L 50 50 L 50 0 L 0 0 Z M 40.292969 23.007812 C 41.5625 23.324219 42.53125 23.890625 43.421875 24.808594 C 43.882812 25.300781 44.566406 26.199219 44.621094 26.414062 C 44.636719 26.476562 42.460938 27.9375 41.144531 28.753906 C 41.097656 28.785156 40.90625 28.578125 40.691406 28.261719 C 40.046875 27.324219 39.375 26.921875 38.339844 26.847656 C 36.824219 26.746094 35.839844 27.539062 35.855469 28.863281 C 35.855469 29.253906 35.910156 29.484375 36.070312 29.800781 C 36.40625 30.492188 37.023438 30.90625 38.96875 31.746094 C 42.546875 33.285156 44.078125 34.300781 45.03125 35.746094 C 46.09375 37.359375 46.332031 39.929688 45.609375 41.84375 C 44.816406 43.921875 42.847656 45.335938 40.078125 45.804688 C 39.222656 45.953125 37.191406 45.929688 36.269531 45.765625 C 34.261719 45.40625 32.355469 44.414062 31.183594 43.113281 C 30.722656 42.605469 29.824219 41.28125 29.878906 41.183594 C 29.902344 41.152344 30.109375 41.027344 30.339844 40.890625 L 32.199219 39.820312 L 33.636719 38.988281 L 33.9375 39.433594 C 34.359375 40.074219 35.277344 40.957031 35.835938 41.25 C 37.429688 42.089844 39.621094 41.972656 40.699219 41.003906 C 41.160156 40.582031 41.351562 40.144531 41.351562 39.503906 C 41.351562 38.921875 41.28125 38.667969 40.976562 38.234375 C 40.589844 37.679688 39.792969 37.210938 37.539062 36.234375 C 34.960938 35.121094 33.847656 34.433594 32.832031 33.335938 C 32.246094 32.703125 31.691406 31.6875 31.460938 30.835938 C 31.269531 30.128906 31.222656 28.359375 31.371094 27.644531 C 31.902344 25.144531 33.785156 23.414062 36.5 22.898438 C 37.382812 22.734375 39.429688 22.796875 40.292969 23.011719 Z M 28.554688 25.09375 L 28.570312 27.140625 L 22.0625 27.140625 L 22.0625 45.632812 L 17.460938 45.632812 L 17.460938 27.140625 L 10.953125 27.140625 L 10.953125 25.132812 L 11.007812 23.070312 C 11.03125 23.039062 14.992188 23.023438 19.792969 23.03125 L 28.53125 23.054688 Z M 28.554688 25.09375 "/>
</g>
</svg>
